<?xml version="1.0" standalone="no"?>
<!DOCTYPE svg PUBLIC "-//W3C//DTD SVG 20010904//EN"
 "http://www.w3.org/TR/2001/REC-SVG-20010904/DTD/svg10.dtd">
<svg version="1.0" xmlns="http://www.w3.org/2000/svg"
 width="204.000000pt" height="192.000000pt" viewBox="0 0 204.000000 192.000000"
 preserveAspectRatio="xMidYMid meet">

<g transform="translate(0.000000,192.000000) scale(0.100000,-0.100000)"
fill="#000000" stroke="none">
<path d="M167 1713 c-4 -3 -7 -307 -7 -675 l0 -668 160 0 160 0 0 -95 0 -95
555 0 555 0 0 398 0 397 155 154 c144 143 155 156 155 191 0 33 -8 45 -79 113
-94 92 -111 96 -175 37 -24 -22 -46 -40 -49 -40 -3 0 -7 21 -9 48 l-3 47 -157
3 -158 3 0 94 0 95 -548 0 c-302 0 -552 -3 -555 -7z m1073 -103 l0 -80 -377
-2 -378 -3 -3 -22 c-3 -21 -9 -23 -64 -23 -89 0 -98 -11 -98 -122 0 -122 4
-128 90 -128 l70 0 0 -35 0 -35 -70 0 c-86 0 -90 -6 -90 -129 0 -113 7 -121
96 -121 l65 0 -3 -41 -3 -41 -64 -4 c-36 -3 -71 -9 -78 -15 -9 -8 -13 -40 -13
-110 0 -118 9 -129 102 -129 l58 0 0 -85 0 -85 -145 0 -145 0 0 645 0 645 525
0 525 0 0 -80z m320 -168 l0 -57 -303 -302 -303 -302 -24 -76 c-23 -73 -32
-86 -45 -65 -9 15 -198 13 -213 -2 -16 -16 -16 -210 0 -226 8 -8 46 -12 107
-12 99 0 131 12 131 50 0 13 25 27 98 53 53 20 111 39 127 43 21 5 90 66 228
202 l197 196 0 -367 0 -367 -525 0 -525 0 0 645 0 645 525 0 525 0 0 -58z
m248 -35 c79 -82 82 -95 31 -143 l-29 -28 -91 89 -90 90 35 33 c20 17 44 32
54 32 10 0 51 -33 90 -73z m-1328 -52 l0 -95 -65 0 -65 0 0 88 c0 49 3 92 7
95 3 4 33 7 65 7 l58 0 0 -95z m1225 -55 l90 -91 -35 -29 -35 -29 -90 89 -89
89 29 31 c16 16 31 30 35 30 3 0 46 -41 95 -90z m-248 -298 c-103 -103 -187
-193 -187 -200 0 -30 37 0 212 175 179 179 189 187 205 170 17 -17 5 -30 -257
-291 l-275 -273 -85 -28 -85 -28 -33 33 -33 33 31 86 31 86 272 272 272 273
60 -60 60 -60 -188 -188z m-977 33 l0 -95 -65 0 -65 0 0 95 0 95 65 0 65 0 0
-95z m0 -330 l0 -95 -65 0 -65 0 0 88 c0 49 3 92 7 95 3 4 33 7 65 7 l58 0 0
-95z m397 -102 c3 -9 1 -37 -7 -62 -23 -84 -24 -91 -6 -91 10 0 14 -4 11 -10
-3 -5 -46 -10 -96 -10 l-89 0 0 95 0 95 90 0 c75 0 92 -3 97 -17z"/>
<path d="M678 1279 c-15 -9 -18 -26 -18 -118 0 -90 3 -110 16 -115 9 -3 60 -6
114 -6 119 0 120 1 120 122 0 121 -7 128 -123 128 -51 0 -100 -5 -109 -11z
m200 -46 c3 -17 -2 -23 -15 -23 -11 0 -36 -18 -58 -40 l-39 -40 -22 21 c-37
34 -41 2 -5 -35 l32 -31 50 53 c28 28 53 52 55 52 3 0 4 -26 2 -57 l-3 -58
-92 -3 -93 -3 0 96 0 96 93 -3 c87 -3 92 -4 95 -25z"/>
<path d="M672 958 c-16 -16 -16 -210 0 -226 8 -8 47 -12 109 -12 123 0 129 6
129 125 0 119 -6 125 -129 125 -62 0 -101 -4 -109 -12z m206 -50 c3 -22 0 -27
-13 -22 -11 5 -30 -7 -59 -35 -38 -37 -44 -40 -56 -26 -13 16 -40 21 -40 7 0
-5 14 -21 30 -37 l30 -29 56 54 55 55 -3 -60 -3 -60 -93 0 -94 0 1 88 c0 48 0
89 1 92 0 3 42 4 93 3 l92 -3 3 -27z"/>
<path d="M1149 693 c-45 -48 -51 -58 -35 -61 20 -4 119 85 113 102 -8 23 -27
13 -78 -41z"/>
</g>
</svg>
